<?xml version="1.0" encoding="utf-8"?><svg version="1.1" id="Layer_1" xmlns="http://www.w3.org/2000/svg" xmlns:xlink="http://www.w3.org/1999/xlink" x="0px" y="0px" viewBox="0 0 125.17 111.71" style="enable-background:new 0 0 125.17 111.71" xml:space="preserve"><style type="text/css">.st0{fill:#FFBE0A;} .st1{fill:#FF2373;} .st2{fill:#FF784B;} .st3{fill:#964BFF;} .st4{fill:#BE3CFA;} .st5{fill:#DC46E1;}</style><g id="Group_5_" transform="translate(1050.000000, 735.000000)"><g><g><g id="Mask_5_"><path id="path-3_5_" class="st0" d="M-928.26-714.84c6.29,13.2,3.93,29.52-7.04,40.49l-50.19,50.18c-1.17,1.17-3.07,1.17-4.24,0 l-14.61-14.61L-928.26-714.84z"/></g><path class="st1" d="M-985.48-724.54l-41,41l-11.31,11.31l16.73,16.73l76.03-76.03l-0.09-0.09 C-958.3-737.84-974.55-735.47-985.48-724.54z"/><path class="st2" d="M-1021.06-655.5l16.73,16.73l76.07-76.06c-1.69-3.55-3.99-6.87-6.93-9.8c-2.93-2.93-6.26-5.24-9.8-6.92 L-1021.06-655.5z"/><path class="st3" d="M-1020.96-689.06l-25.55-25.55c-6.34,13.24-4.04,29.55,6.9,40.49l1.85,1.85L-1020.96-689.06z"/><path class="st4" d="M-1004.16-705.86l-25.54-25.54c-3.55,1.7-6.89,4.02-9.83,6.96c-2.95,2.95-5.26,6.28-6.96,9.83l25.54,25.54 L-1004.16-705.86z"/><path class="st5" d="M-987.36-722.66l-1.85-1.85c-10.94-10.94-27.25-13.22-40.49-6.89l25.54,25.54L-987.36-722.66z"/></g></g></g></svg>